HIERARCHY
ROOT Hips
{
	OFFSET 0.00 0.00 0.00
	CHANNELS 6 Xposition Yposition Zposition Xrotation Yrotation Zrotation
	JOINT Spine
	{
		OFFSET 0.00000 0.84964 1.27446
		CHANNELS 3 Xrotation Yrotation Zrotation
		JOINT Spine1
		{
			OFFSET 0.00000 0.29508 1.67346
			CHANNELS 3 Xrotation Yrotation Zrotation
			JOINT Spine2
			{
				OFFSET 0.00000 0.14810 1.69281
				CHANNELS 3 Xrotation Yrotation Zrotation
				JOINT Spine3
				{
					OFFSET 0.00000 0.00000 1.69928
					CHANNELS 3 Xrotation Yrotation Zrotation
					JOINT Neck
					{
						OFFSET 0.00000 -0.63723 4.46061
						CHANNELS 3 Xrotation Yrotation Zrotation
						JOINT Head
						{
							OFFSET 0.00000 -0.40573 2.30101
							CHANNELS 3 Xrotation Yrotation Zrotation
							End Site
							{
								OFFSET 0.00000 0.00000 2.75071
							}
						}
					}
					JOINT RightShoulder
					{
						OFFSET -0.72014 -1.20022 3.88874
						CHANNELS 3 Xrotation Yrotation Zrotation
						JOINT RightArm
						{
							OFFSET -3.57668 0.00000 0.00000
							CHANNELS 3 Xrotation Yrotation Zrotation
							JOINT RightForeArm
							{
								OFFSET -5.92485 0.00000 0.00000
								CHANNELS 3 Xrotation Yrotation Zrotation
								JOINT RightHand
								{
									OFFSET -6.63013 0.00000 0.00000
									CHANNELS 3 Xrotation Yrotation Zrotation
									JOINT RightHandEnd
									{
										OFFSET -1.65321 0.00000 0.00000
										CHANNELS 3 Xrotation Yrotation Zrotation
										End Site
										{
											OFFSET -1.65321 0.00000 0.00000
										}
									}
									JOINT RightHandThumb1
									{
										OFFSET -0.66129 -1.10214 -0.44086
										CHANNELS 3 Yrotation Xrotation Zrotation
										End Site
										{
											OFFSET -1.59688 -0.42788 0.00000
										}
									}
								}
							}
						}
					}
					JOINT LeftShoulder
					{
						OFFSET 0.72014 -1.20022 3.88874
						CHANNELS 3 Xrotation Yrotation Zrotation
						JOINT LeftArm
						{
							OFFSET 3.57668 0.00000 0.00000
							CHANNELS 3 Xrotation Yrotation Zrotation
							JOINT LeftForeArm
							{
								OFFSET 5.92485 0.00000 0.00000
								CHANNELS 3 Xrotation Yrotation Zrotation
								JOINT LeftHand
								{
									OFFSET 6.63013 0.00000 0.00000
									CHANNELS 3 Xrotation Yrotation Zrotation
									JOINT LeftHandEnd
									{
										OFFSET 1.65321 0.00000 0.00000
										CHANNELS 3 Xrotation Yrotation Zrotation
										End Site
										{
											OFFSET 1.65321 0.00000 0.00000
										}
									}
									JOINT LeftHandThumb1
									{
										OFFSET 0.66129 -1.10214 -0.44086
										CHANNELS 3 Yrotation Xrotation Zrotation
										End Site
										{
											OFFSET 1.59688 -0.42788 0.00000
										}
									}
								}
							}
						}
					}
				}
			}
		}
	}
	JOINT RightUpLeg
	{
		OFFSET -2.13640 0.00000 -0.62412
		CHANNELS 3 Xrotation Yrotation Zrotation
		JOINT RightLeg
		{
			OFFSET 0.00000 0.00000 -11.49360
			CHANNELS 3 Xrotation Yrotation Zrotation
			JOINT RightFoot
			{
				OFFSET 0.00000 0.00000 -8.79036
				CHANNELS 3 Xrotation Yrotation Zrotation
				JOINT RightToeBase
				{
					OFFSET 0.00000 -3.94625 -1.43632
					CHANNELS 3 Xrotation Yrotation Zrotation
					End Site
					{
						OFFSET 0.00000 -1.72833 -0.00000
					}
				}
			}
		}
	}
	JOINT LeftUpLeg
	{
		OFFSET 2.13640 0.00000 -0.62412
		CHANNELS 3 Xrotation Yrotation Zrotation
		JOINT LeftLeg
		{
			OFFSET 0.00000 0.00000 -11.49360
			CHANNELS 3 Xrotation Yrotation Zrotation
			JOINT LeftFoot
			{
				OFFSET 0.00000 0.00000 -8.79036
				CHANNELS 3 Xrotation Yrotation Zrotation
				JOINT LeftToeBase
				{
					OFFSET 0.00000 -3.94625 -1.43632
					CHANNELS 3 Xrotation Yrotation Zrotation
					End Site
					{
						OFFSET 0.00000 -1.72833 -0.00000
					}
				}
			}
		}
	}
}
MOTION
Frames: 9
Frame Time: 0.008342
 1.0787 -113.8924 23.1850 -5.4378 -3.3481 -179.7576 -4.9623 -5.9753 0.1339 -1.1573 -1.7446 -0.6691 -2.8363 -1.3841 -1.3120 -0.5601 6.8771 -1.8121 -1.2522 5.8956 0.0465 11.6615 -2.6108 -2.0063 -11.9449 -1.6717 0.5914 -8.9741 1.7671 -3.1815 0.0000 0.0000 15.3198 2.5871 -8.2199 -11.9881 0.0000 -0.0000 -0.0000 -0.0000 -0.0000 -0.0000 -8.3418 -5.4161 5.3663 -24.6831 4.7342 2.1111 -0.0000 -0.0000 -5.9986 -7.8608 -12.9917 12.7353 -0.0000 0.0000 -0.0000 -0.0000 0.0000 0.0000 0.4576 -4.5839 -53.9769 -2.1744 0.0000 -0.0000 -6.8869 -4.8995 43.9000 2.5723 0.0000 0.0000 1.8525 -5.5145 9.8517 -6.0356 0.0000 -0.0000 -3.2324 -2.5017 -5.4627 -4.5501 0.0000 -0.0000
 1.0786 -113.8782 23.1838 -5.4159 -3.3505 -179.7821 -5.0246 -5.9621 0.1267 -1.1690 -1.7444 -0.6707 -2.8074 -1.3852 -1.3179 -0.5432 6.8810 -1.8145 -1.2384 5.8887 0.0444 11.7319 -2.6242 -2.0071 -11.9512 -1.7235 0.5675 -8.9864 1.8066 -3.1614 0.0000 0.0000 15.3156 2.6005 -8.2236 -11.9796 0.0000 0.0000 0.0000 0.0000 0.0000 0.0000 -8.3462 -5.3880 5.3890 -24.6603 4.6845 2.1132 -0.0000 -0.0000 -5.9998 -7.8676 -13.0121 12.7293 0.0000 -0.0000 -0.0000 0.0000 -0.0000 0.0000 0.5152 -4.5821 -53.9415 -2.1600 0.0000 -0.0000 -6.9220 -4.9159 43.8905 2.5710 0.0000 0.0000 1.9280 -5.5146 9.8838 -6.0514 0.0000 -0.0000 -3.2647 -2.4992 -5.4638 -4.5281 0.0000 -0.0000
 1.0784 -113.8596 23.1822 -5.3822 -3.3541 -179.8115 -5.1002 -5.9477 0.1185 -1.1842 -1.7434 -0.6715 -2.7712 -1.3851 -1.3269 -0.5210 6.8885 -1.8174 -1.2187 5.8799 0.0360 11.8199 -2.6440 -2.0121 -11.9601 -1.7895 0.5347 -9.0000 1.8552 -3.1398 0.0000 0.0000 15.3091 2.6082 -8.2259 -11.9632 0.0000 0.0000 -0.0000 -0.0000 0.0000 -0.0000 -8.3561 -5.3554 5.4138 -24.6289 4.6226 2.1171 -0.0000 -0.0000 -6.0010 -7.8774 -13.0382 12.7196 -0.0000 0.0000 0.0000 -0.0000 -0.0000 0.0000 0.5955 -4.5804 -53.8944 -2.1409 0.0000 -0.0000 -6.9700 -4.9370 43.8738 2.5719 0.0000 0.0000 2.0305 -5.5155 9.9193 -6.0698 0.0000 -0.0000 -3.3093 -2.4969 -5.4617 -4.5007 0.0000 -0.0000
 1.0781 -113.8367 23.1802 -5.3291 -3.3578 -179.8433 -5.1789 -5.9320 0.1082 -1.2032 -1.7417 -0.6729 -2.7281 -1.3815 -1.3379 -0.4960 6.8987 -1.8220 -1.1924 5.8705 0.0229 11.9241 -2.6702 -2.0243 -11.9699 -1.8697 0.4956 -9.0150 1.9138 -3.1186 0.0000 0.0000 15.3031 2.6038 -8.2310 -11.9462 -0.0000 -0.0000 0.0000 -0.0000 -0.0000 0.0000 -8.3702 -5.3108 5.4444 -24.5885 4.5413 2.1143 -0.0000 -0.0000 -6.0015 -7.8891 -13.0648 12.7097 -0.0000 0.0000 -0.0000 -0.0000 0.0000 0.0000 0.7076 -4.5781 -53.8471 -2.1210 0.0000 -0.0000 -7.0278 -4.9655 43.8594 2.5800 0.0000 0.0000 2.1683 -5.5152 9.9575 -6.0933 0.0000 -0.0000 -3.3637 -2.4946 -5.4581 -4.4700 0.0000 -0.0000
 1.0776 -113.8099 23.1777 -5.2576 -3.3616 -179.8760 -5.2593 -5.9141 0.0976 -1.2273 -1.7419 -0.6745 -2.6787 -1.3708 -1.3539 -0.4653 6.9101 -1.8278 -1.1636 5.8590 0.0050 12.0447 -2.7008 -2.0452 -11.9822 -1.9596 0.4520 -9.0299 1.9777 -3.1026 0.0000 0.0000 15.2985 2.5907 -8.2394 -11.9256 0.0000 0.0000 -0.0000 0.0000 0.0000 0.0000 -8.3931 -5.2671 5.4820 -24.5413 4.4572 2.1098 -0.0000 -0.0000 -6.0038 -7.9060 -13.0981 12.6951 -0.0000 -0.0000 0.0000 -0.0000 0.0000 0.0000 0.8485 -4.5752 -53.8031 -2.0983 0.0000 -0.0000 -7.0970 -5.0004 43.8491 2.5944 0.0000 0.0000 2.3385 -5.5144 9.9940 -6.1213 0.0000 -0.0000 -3.4266 -2.4922 -5.4497 -4.4358 0.0000 -0.0000
 1.0772 -113.7803 23.1749 -5.1938 -3.3695 -179.9092 -5.3703 -5.9004 0.0829 -1.2476 -1.7397 -0.6753 -2.6264 -1.3605 -1.3693 -0.4300 6.9275 -1.8358 -1.1305 5.8495 -0.0194 12.1773 -2.7393 -2.0763 -11.9971 -2.0609 0.3996 -9.0400 2.0495 -3.0872 0.0000 0.0000 15.2914 2.5641 -8.2523 -11.9003 0.0000 -0.0000 -0.0000 -0.0000 -0.0000 0.0000 -8.4257 -5.2113 5.5220 -24.4878 4.3574 2.0981 -0.0000 -0.0000 -6.0084 -7.9238 -13.1304 12.6811 0.0000 -0.0000 0.0000 -0.0000 -0.0000 0.0000 0.9890 -4.5759 -53.7493 -2.0741 0.0000 -0.0000 -7.1736 -5.0374 43.8283 2.6148 0.0000 0.0000 2.5086 -5.5176 10.0259 -6.1486 0.0000 -0.0000 -3.4988 -2.4909 -5.4366 -4.3991 0.0000 -0.0000
 1.0767 -113.7483 23.1718 -5.1149 -3.3764 -179.9399 -5.4783 -5.8860 0.0689 -1.2720 -1.7407 -0.6771 -2.5701 -1.3412 -1.3871 -0.3916 6.9479 -1.8459 -1.0948 5.8387 -0.0495 12.3192 -2.7818 -2.1177 -12.0134 -2.1676 0.3443 -9.0421 2.1229 -3.0790 0.0000 0.0000 15.2828 2.5269 -8.2712 -11.8711 0.0000 0.0000 -0.0000 0.0000 -0.0000 -0.0000 -8.4686 -5.1571 5.5667 -24.4297 4.2576 2.0812 -0.0000 -0.0000 -6.0141 -7.9425 -13.1654 12.6638 -0.0000 0.0000 -0.0000 -0.0000 -0.0000 0.0000 1.1518 -4.5755 -53.7037 -2.0503 0.0000 -0.0000 -7.2567 -5.0795 43.8131 2.6407 0.0000 0.0000 2.7029 -5.5189 10.0524 -6.1813 0.0000 -0.0000 -3.5729 -2.4894 -5.4189 -4.3614 0.0000 -0.0000
 1.0762 -113.7148 23.1686 -5.0324 -3.3841 -179.9677 -5.5916 -5.8752 0.0547 -1.2978 -1.7419 -0.6792 -2.5112 -1.3158 -1.4052 -0.3505 6.9737 -1.8588 -1.0573 5.8268 -0.0845 12.4673 -2.8282 -2.1686 -12.0314 -2.2794 0.2865 -9.0336 2.1977 -3.0770 0.0000 0.0000 15.2701 2.4810 -8.2965 -11.8373 0.0000 -0.0000 -0.0000 -0.0000 -0.0000 -0.0000 -8.5220 -5.1011 5.6142 -24.3697 4.1545 2.0566 -0.0000 -0.0000 -6.0213 -7.9630 -13.2009 12.6455 0.0000 0.0000 -0.0000 0.0000 -0.0000 0.0000 1.3231 -4.5767 -53.6618 -2.0290 0.0000 -0.0000 -7.3417 -5.1241 43.7985 2.6703 0.0000 0.0000 2.9063 -5.5205 10.0731 -6.2191 0.0000 -0.0000 -3.6460 -2.4878 -5.3976 -4.3230 0.0000 -0.0000
 1.0756 -113.6808 23.1652 -4.9408 -3.3900 -179.9909 -5.6975 -5.8645 0.0408 -1.3270 -1.7463 -0.6792 -2.4510 -1.2832 -1.4258 -0.3080 7.0044 -1.8733 -1.0189 5.8143 -0.1241 12.6180 -2.8777 -2.2279 -12.0500 -2.3921 0.2285 -9.0124 2.2710 -3.0838 0.0000 0.0000 15.2538 2.4295 -8.3295 -11.7992 0.0000 -0.0000 -0.0000 -0.0000 0.0000 -0.0000 -8.5858 -5.0476 5.6634 -24.3093 4.0550 2.0255 -0.0000 -0.0000 -6.0295 -7.9842 -13.2356 12.6256 -0.0000 0.0000 0.0000 0.0000 -0.0000 0.0000 1.5062 -4.5764 -53.6281 -2.0100 0.0000 -0.0000 -7.4274 -5.1713 43.7881 2.7019 0.0000 0.0000 3.1218 -5.5196 10.0851 -6.2623 0.0000 -0.0000 -3.7137 -2.4858 -5.3707 -4.2849 0.0000 -0.0000
